<?xml version="1.0" encoding="utf-8"?>
<!-- Generator: Adobe Illustrator 22.0.0, SVG Export Plug-In . SVG Version: 6.00 Build 0)  -->
<svg version="1.1" id="图层_1" xmlns="http://www.w3.org/2000/svg" xmlns:xlink="http://www.w3.org/1999/xlink" x="0px" y="0px"
	 viewBox="0 0 1920 1920" style="enable-background:new 0 0 1920 1920;" xml:space="preserve">
<style type="text/css">
	.st0{fill:#F4F4F4;}
	.st1{fill:#E2E2E2;}
	.st2{fill:#EAEAEA;}
	.st3{fill:#C9C9C9;}
	.st4{fill:#E4E4E4;}
	.st5{fill:#EFEFEF;}
	.st6{fill:#FFFFFF;}
	.st7{fill:#D8D8D8;}
	.st8{fill:url(#矩形_1_);}
	.st9{fill:#D7D7D7;}
	.st10{fill:#ECECEC;}
	.st11{fill:url(#SVGID_1_);}
	.st12{fill:#E5E5E5;}
	.st13{fill:#C1C1C1;}
	.st14{fill:url(#SVGID_2_);}
</style>
<path class="st0" d="M5.1,1159.6c-24.4-163.7,42-346.8,120.4-479.5c65.2-110.4,151.4-203.2,249-276
	c104.3-77.8,212.7-101.4,335.3-81.9c120.9,19.3,263.9,71.2,383.3,20c109.7-42,236.2-94.2,353.1-99c146.3-6,351.4,110.8,423.6,259.1
	c121.5,249.3,45.9,697.4-487.9,984.7c-163.4,98.4-343.4,157.2-526.8,180.2c-77.2,9.7-432.7,66.4-419.7-102.7
	c7.2-93.4,178.9-171.1-3.7-183.9C371.7,1376.4,49.2,1455.6,5.1,1159.6z"/>
<ellipse class="st1" cx="939.4" cy="1299.6" rx="574.9" ry="97.3"/>
<g id="Group_961" transform="translate(0.000000, 30.000000)">
	<path id="Path_1929" class="st2" d="M1729.6,748.8c0,0,17.5-170.4,85.7-132.9C1815.3,615.9,1864.5,638.9,1729.6,748.8z
		 M1694.7,810.4c143-26.3,116.5-63.6,116.2-63.6C1776.5,690.9,1694.7,810.4,1694.7,810.4L1694.7,810.4z M1633.5,884.1
		c178.5,20,160.5-34.4,160.5-34.2C1773.2,770.5,1633.5,884.1,1633.5,884.1L1633.5,884.1z M1575.4,962.4
		c190.4,42.1,177-18.6,177-18.6C1738.8,855.6,1575.4,962.4,1575.4,962.4L1575.4,962.4z M1666.7,696.4c0,0-45.8-2.4,7.5,131.8
		C1674.1,828.2,1732.4,695.7,1666.7,696.4L1666.7,696.4z M1579.8,764.6c0,0-57.2,4.2,30.3,161
		C1610.1,925.6,1661.2,753.2,1579.8,764.6L1579.8,764.6z M1492.5,834.1c0,0-60.3,15.6,63.2,166.5
		C1555.7,1000.6,1577.2,806.5,1492.5,834.1L1492.5,834.1z"/>
	<path id="Path_1930" class="st3" d="M1522.1,914.4c-0.2-2.4,1.3-4.6,3.7-4.8c1.1-0.2,2.2,0.2,3.1,0.9c0.9,0.7,1.3,1.8,1.5,2.9
		c0,0.4,3.9,37.3,7,86.8c23.5-26.1,45.4-52.2,65.6-77.9c4.4-22.6-10.1-81.1-10.3-81.8c-0.4-2.4,0.9-4.6,3.1-5.3
		c1.1-0.2,2.4-0.2,3.3,0.4c1.1,0.7,1.8,1.5,2,2.6c0.7,2,11,44.3,11.4,72.2c22.1-28.7,41.9-56.6,59.2-82l-5.3-67.8
		c0-2.4,1.5-4.4,3.9-4.6c1.1-0.2,2.2,0.2,3.1,0.9c0.9,0.7,1.5,1.8,1.5,2.9l4.4,57.2c26.8-39.7,51.3-80.9,73.9-123.2
		c1.1-2.2,3.5-3.1,5.7-2c1.1,0.4,1.8,1.3,2.2,2.4c0.4,1.1,0.2,2.2-0.2,3.3c-0.4,0.9-22.8,44.3-63.4,107
		c19.5-16.4,41.2-30.3,64.5-40.8c1.1-0.4,2.2-0.4,3.3,0c0.9,0.4,1.8,1.1,2.2,2.2c0.9,2.2,0,4.6-2.2,5.5c-46.3,20-85.5,60.5-86,61
		c0,0.2-0.2,0.2-0.2,0.2c-9.4,13.8-19.5,28.3-30.5,43.4c24.8-8.3,65.8-18,67.8-18.4c0.9-0.4,2.2-0.2,3.1,0.4
		c0.9,0.7,1.5,1.5,1.8,2.6c0.4,2.2-1.1,4.4-3.3,5c-0.4,0.2-59.2,14-78.5,22.4c-9.2,12.3-18.6,25-28.7,37.7c-0.2,0.7-0.4,0.9-0.9,1.3
		c-7.9,10.1-16,20.2-24.6,30.5c30-11.8,66.7-12.3,68.6-12.3c1.3,0,2.2,0.4,3.1,1.3c0.7,0.9,1.1,2,1.1,3.1c0,2.2-1.8,4.2-4.2,4.2
		c-0.4,0-53.7,0.7-82.5,20.4c-23.7,27.6-49.6,55.5-77,82.5c-2-1.8-3.9-3.3-5.9-5c1.3-1.3,2.6-2.9,3.5-4.4
		c13.2-12.9,25.9-26.1,38.2-39.5c-0.4-0.7-0.7-1.3-0.7-2C1526.3,953.6,1522.1,914.4,1522.1,914.4z"/>
</g>
<g>
	<path id="矩形_11_" class="st4" d="M720.8,335.6h699.9c27.4,0,49.6,22.2,49.6,49.6v925.8c0,27.4-22.2,49.6-49.6,49.6H720.8
		c-27.4,0-49.6-22.2-49.6-49.6V385.2C671.2,357.8,693.4,335.6,720.8,335.6z"/>
	<path id="矩形_10_" class="st5" d="M764.9,335.6h699.9c27.4,0,49.6,22.2,49.6,49.6v925.8c0,27.4-22.2,49.6-49.6,49.6H764.9
		c-27.4,0-49.6-22.2-49.6-49.6V385.2C715.3,357.8,737.5,335.6,764.9,335.6z"/>
	<path id="矩形_9_" class="st6" d="M837.1,434.8h561c24.7,0,44.6,20,44.6,44.6v742.9c0,24.7-20,44.6-44.6,44.6h-561
		c-24.7,0-44.6-20-44.6-44.6V479.5C792.4,454.8,812.4,434.8,837.1,434.8z"/>
	<polygon id="路径-10" class="st7" points="1034.9,269.5 1183.7,269.5 1147.9,347.9 1066.3,347.9 	"/>
	
		<linearGradient id="矩形_1_" gradientUnits="userSpaceOnUse" x1="14.7565" y1="1906.7047" x2="14.7565" y2="1899.8159" gradientTransform="matrix(68 0 0 -20 105.8628 38453.1992)">
		<stop  offset="0" style="stop-color:#EEEEEE"/>
		<stop  offset="1" style="stop-color:#D8D8D8"/>
	</linearGradient>
	<path id="矩形_8_" class="st8" d="M924.7,319.1h369.2c27.4,0,49.6,22.2,49.6,49.6v88.2l0,0H875.1v-88.2
		C875.1,341.3,897.3,319.1,924.7,319.1z"/>
	<rect id="矩形_7_" x="875.1" y="374.2" class="st9" width="468.4" height="27.6"/>
	<path id="矩形_6_" class="st10" d="M913.7,583.6h38.6c21.3,0,38.6,17.3,38.6,38.6l0,0c0,21.3-17.3,38.6-38.6,38.6h-38.6
		c-21.3,0-38.6-17.3-38.6-38.6l0,0C875.1,600.9,892.4,583.6,913.7,583.6z"/>
	<path id="矩形备份-20" class="st10" d="M1051.4,583.6H1316c21.3,0,38.6,17.3,38.6,38.6l0,0c0,21.3-17.3,38.6-38.6,38.6h-264.5
		c-21.3,0-38.6-17.3-38.6-38.6l0,0C1012.9,600.9,1030.1,583.6,1051.4,583.6z"/>
	<path id="矩形备份-21" class="st10" d="M913.7,771H1316c21.3,0,38.6,17.3,38.6,38.6l0,0c0,21.3-17.3,38.6-38.6,38.6H913.7
		c-21.3,0-38.6-17.3-38.6-38.6l0,0C875.1,788.3,892.4,771,913.7,771z"/>
	<path id="矩形备份-22" class="st10" d="M908.2,958.4h402.3c21.3,0,38.6,17.3,38.6,38.6l0,0c0,21.3-17.3,38.6-38.6,38.6H908.2
		c-21.3,0-38.6-17.3-38.6-38.6l0,0C869.6,975.7,886.8,958.4,908.2,958.4z"/>
</g>
<g>
	<path class="st1" d="M282.8,891.7c-45.8-40.2-50.9-113.6-0.5-171.8c50.4-58.1,134.1-70.5,178.5-31.4L848.3,1028l-177.2,204.2
		L282.8,891.7z"/>
	
		<linearGradient id="SVGID_1_" gradientUnits="userSpaceOnUse" x1="1736.7561" y1="787.9121" x2="2304.3542" y2="787.9121" gradientTransform="matrix(-0.9999 1.129678e-02 1.129678e-02 0.9999 2575.127 134.7252)">
		<stop  offset="0" style="stop-color:#FFFFFF"/>
		<stop  offset="0.96" style="stop-color:#DDDDDE"/>
	</linearGradient>
	<path class="st11" d="M306.3,722.8c-30.6,47-43.1,99.2-1.7,135.6l392.5,343.9l151.2-173.9L492,716.2
		C442.7,688.8,376,669.1,306.3,722.8L306.3,722.8z"/>
	<path class="st1" d="M339.8,889l152.1-173.3l-36.8-32.2c-55.3-38.6-131.9-11-172.9,36.3s-18.7,102,22.4,138.2L339.8,889L339.8,889z
		"/>
	<path class="st12" d="M671.2,1232.3l220.7,22.4c3.6,0.2,6.4-2.9,5.7-6.5l-13.4-63.5L848.3,1028l-174.1,200.7
		C671.2,1232.2,671.2,1232.2,671.2,1232.3z"/>
	<path class="st13" d="M827.2,1249.5l64.7,5.1c1.7,0.1,3.3-0.5,4.5-1.8c1.1-1.2,1.6-3,1.2-4.6l-13.4-63.5L827.2,1249.5z"/>
	
		<linearGradient id="SVGID_2_" gradientUnits="userSpaceOnUse" x1="1752.2404" y1="1070.6476" x2="1916.2258" y2="1070.6476" gradientTransform="matrix(-0.9999 1.129678e-02 1.129678e-02 0.9999 2575.127 134.7252)">
		<stop  offset="0" style="stop-color:#FFFFFF"/>
		<stop  offset="0.96" style="stop-color:#DDDDDE"/>
	</linearGradient>
	<path class="st14" d="M671.2,1232.2l156,17.3l8.1-9.3l-138.1-38L671.2,1232.2z"/>
	<path class="st6" d="M424.9,704c-14.6-12.8-37.2-11.4-50.1,3.3c-2.1,2.4-5.9,2.6-8.3,0.5s-2.6-5.9-0.5-8.3
		c17.2-19.6,47.1-21.5,66.7-4.3c2.4,2.1,2.6,5.9,0.5,8.3C431.1,705.8,427.3,706.1,424.9,704z M448.2,724.5l-6.9-6.1
		c-2.4-2.1-2.6-5.9-0.5-8.3c2.1-2.4,5.9-2.6,8.3-0.5l6.9,6.1c2.4,2.1,2.6,5.9,0.5,8.3C454.4,726.3,450.7,726.6,448.2,724.5z"/>
</g>
</svg>
