<svg width="559" height="470" viewBox="0 0 559 470" fill="none" xmlns="http://www.w3.org/2000/svg">
<path d="M241 245L449 245V251H241V245Z" fill="url(#paint0_linear)"/>
<path fill-rule="evenodd" clip-rule="evenodd" d="M238 88L453 88V251H238V88Z" fill="#A7C3FF"/>
<path d="M241 90L449 90V248H241V90Z" fill="#EAEFFF"/>
<rect x="314" y="238" width="60" height="13" fill="#A7C3FF"/>
<path d="M298.58 164.978L309.953 152.243H344.58V226.243H298.58V164.978Z" fill="white" stroke="#D2E0FF"/>
<rect x="336.575" y="151.008" width="4" height="13" transform="rotate(-42 336.575 151.008)" fill="#C6D8FF"/>
<rect width="4" height="13" transform="matrix(0.743145 0.669131 0.669131 -0.743145 337.575 227.992)" fill="#C6D8FF"/>
<path fill-rule="evenodd" clip-rule="evenodd" d="M295.317 220.685L298.079 218.331L305.246 227.992L302.381 230.058L295.317 220.685Z" fill="#C6D8FF"/>
<path fill-rule="evenodd" clip-rule="evenodd" d="M309.699 151.743L298.08 164.541C298.08 164.541 299.882 166.241 302.116 167.134C304.349 168.027 308.734 168.755 308.734 168.755C308.734 168.755 307.916 164.62 308.088 161.366C308.259 158.111 309.699 151.743 309.699 151.743Z" fill="#C6D8FF"/>
<rect width="47" height="58" transform="matrix(-1 0 0 1 427 105)" fill="#C6D8FF"/>
<path d="M426.497 105.5H380.497C380.497 105.539 380.496 105.58 380.496 105.623C380.492 106.027 380.484 106.62 380.469 107.374C380.437 108.881 380.375 111.035 380.249 113.618C379.999 118.783 379.498 125.676 378.495 132.572C377.492 139.468 375.988 146.36 374.736 151.524C374.11 154.107 373.546 156.26 373.139 157.767C372.938 158.51 372.776 159.096 372.662 159.5H418.623C418.644 159.426 418.668 159.342 418.694 159.247C418.807 158.846 418.971 158.257 419.174 157.506C419.579 156.006 420.14 153.862 420.764 151.288C422.012 146.14 423.508 139.282 424.505 132.428C425.502 125.574 426.001 118.717 426.251 113.57C426.375 110.997 426.438 108.853 426.469 107.353C426.484 106.603 426.492 106.014 426.496 105.613C426.496 105.573 426.497 105.536 426.497 105.5Z" fill="white" stroke="#D2E0FF"/>
<path fill-rule="evenodd" clip-rule="evenodd" d="M402.5 110C401.672 110 401 109.328 401 108.5C401 107.672 401.672 107 402.5 107C403.328 107 404 107.672 404 108.5C404 109.328 403.328 110 402.5 110Z" fill="#C6D8FF"/>
<rect width="21" height="26" transform="matrix(-0.951057 -0.309017 -0.309017 0.951057 287.503 108.881)" fill="#FFBF29"/>
<path fill-rule="evenodd" clip-rule="evenodd" d="M269.919 108.234C269.091 108.234 268.419 107.562 268.419 106.734C268.419 105.905 269.091 105.234 269.919 105.234C270.748 105.234 271.419 105.905 271.419 106.734C271.419 107.562 270.748 108.234 269.919 108.234Z" fill="white"/>
<path fill-rule="evenodd" clip-rule="evenodd" d="M317 105H296C296 105 296.25 111.5 295.5 118C294.75 124.5 293 131 293 131H314C314 131 315.75 124.5 316.5 118C317.25 111.5 317 105 317 105Z" fill="#FF5D8E"/>
<path fill-rule="evenodd" clip-rule="evenodd" d="M305.919 109.234C305.091 109.234 304.419 108.562 304.419 107.734C304.419 106.905 305.091 106.234 305.919 106.234C306.748 106.234 307.419 106.905 307.419 107.734C307.419 108.562 306.748 109.234 305.919 109.234Z" fill="white"/>
<rect width="21" height="26" transform="matrix(-1 0 0 1 343 105)" fill="#467FFF"/>
<path fill-rule="evenodd" clip-rule="evenodd" d="M331.919 109.234C331.091 109.234 330.419 108.562 330.419 107.734C330.419 106.905 331.091 106.234 331.919 106.234C332.748 106.234 333.419 106.905 333.419 107.734C333.419 108.562 332.748 109.234 331.919 109.234Z" fill="white"/>
<path fill-rule="evenodd" clip-rule="evenodd" d="M292.02 441.171C292.02 440.278 291.323 439.542 290.432 439.493L253.653 437.48H242.337L205.409 439.493C204.518 439.542 203.82 440.279 203.82 441.171V443.78H292.02V441.171Z" fill="#C8DAFF"/>
<path fill-rule="evenodd" clip-rule="evenodd" d="M252.12 374.9H243.72V437.9H252.12V374.9Z" fill="#C8DAFF"/>
<rect width="12.6" height="14.7" rx="0.84" transform="matrix(-1 0 0 1 254.22 429.08)" fill="#A7C3FF"/>
<path fill-rule="evenodd" clip-rule="evenodd" d="M258.42 371.12C258.42 370.656 258.044 370.28 257.58 370.28H238.26C237.796 370.28 237.42 370.656 237.42 371.12V377.691C237.42 378.035 237.629 378.343 237.948 378.471L242.52 380.3C242.619 380.339 242.725 380.36 242.832 380.36H253.008C253.115 380.36 253.221 380.339 253.32 380.3L257.892 378.471C258.211 378.343 258.42 378.035 258.42 377.691V371.12Z" fill="#A7C3FF"/>
<rect width="8.4" height="8.4" rx="2.1" transform="matrix(-1 0 0 1 294.12 443.78)" fill="#A7C3FF"/>
<rect width="8.4" height="8.4" rx="2.1" transform="matrix(-1 0 0 1 210.12 443.78)" fill="#A7C3FF"/>
<rect width="8.4" height="8.4" rx="2.1" transform="matrix(-1 0 0 1 252.12 443.78)" fill="#A7C3FF"/>
<path fill-rule="evenodd" clip-rule="evenodd" d="M258 365.24C258 361.529 254.991 358.52 251.28 358.52H198.36C194.649 358.52 191.64 361.529 191.64 365.24C191.64 368.951 194.649 371.96 198.36 371.96H251.28C254.991 371.96 258 368.951 258 365.24Z" fill="#C8DAFF"/>
<path fill-rule="evenodd" clip-rule="evenodd" d="M290.76 296.36H279C279 296.36 279 313.16 279 329.96C279 346.76 260.1 363.56 260.1 363.56H275.64C275.64 363.56 290.76 349.253 290.76 329.96C290.76 313.16 290.76 296.36 290.76 296.36Z" fill="#A7C3FF"/>
<path fill-rule="evenodd" clip-rule="evenodd" d="M285.72 296.36H273.96C273.96 296.36 273.96 313.16 273.96 329.96C273.96 346.76 255.06 363.56 255.06 363.56H268.92C268.92 363.56 285.72 349.646 285.72 329.96C285.72 313.16 285.72 296.36 285.72 296.36Z" fill="#C8DAFF"/>
<path fill-rule="evenodd" clip-rule="evenodd" d="M320.16 280.4C320.16 275.761 316.399 272 311.76 272H252.511C247.872 272 244.111 275.761 244.111 280.4V313.044C244.111 317.684 247.872 321.444 252.511 321.444H311.76C316.399 321.444 320.16 317.684 320.16 313.044L320.16 280.4Z" fill="#C8DAFF"/>
<path fill-rule="evenodd" clip-rule="evenodd" d="M320.523 277.446C320.523 274.438 318.085 272 315.077 272C312.069 272 309.631 274.438 309.631 277.446V315.999C309.631 319.006 312.069 321.444 315.077 321.444C318.085 321.444 320.523 319.006 320.523 315.999L320.523 277.446Z" fill="#A7C3FF"/>
<path fill-rule="evenodd" clip-rule="evenodd" d="M299.16 365.24C299.16 361.529 296.152 358.52 292.44 358.52L241.2 358.52C237.489 358.52 234.48 361.529 234.48 365.24C234.48 368.951 237.489 371.96 241.2 371.96H292.44C296.152 371.96 299.16 368.951 299.16 365.24Z" fill="#A7C3FF"/>
<path fill-rule="evenodd" clip-rule="evenodd" d="M211.034 423.663H197.728L203.272 442.143H215.469L211.034 423.663Z" fill="#9A7C55"/>
<path fill-rule="evenodd" clip-rule="evenodd" d="M216.794 439.925H199.722C199.722 439.925 201.165 444.176 198.625 444.176C196.085 444.176 185.519 443.533 182.077 445.654C178.636 447.775 178.725 451.397 178.725 451.397V454.34H204.225L206.659 451.89L208.224 454.34H219.011L216.794 439.925Z" fill="#4F2511"/>
<path fill-rule="evenodd" clip-rule="evenodd" d="M219.335 451.806H178.31V455.133H203.571L206.042 452.915L207.774 455.133H219.335V451.806Z" fill="#34180A"/>
<path fill-rule="evenodd" clip-rule="evenodd" d="M251.888 325.246C251.888 325.246 246.891 358.293 227.584 358.293C208.278 358.293 192.338 358.293 192.338 358.293C192.338 358.293 196.521 365.629 200.795 376.307C205.068 386.985 216.648 431.753 216.648 431.753H198.739L160.839 354.287C155.338 343.045 162.895 329.795 175.371 328.806L220.226 325.246V320.491H251.888V325.246Z" fill="#E4A95B"/>
<path fill-rule="evenodd" clip-rule="evenodd" d="M165.374 424.086H152.068L146.894 442.566H159.091L165.374 424.086Z" fill="#C09D6E"/>
<path fill-rule="evenodd" clip-rule="evenodd" d="M161.724 439.926H144.652C144.652 439.926 142.399 444.176 139.859 444.176C137.319 444.176 126.753 443.534 123.311 445.654C119.87 447.775 119.959 451.397 119.959 451.397V454.34H145.459L147.893 451.89L149.458 454.34H160.245L161.724 439.926Z" fill="#823E1D"/>
<path fill-rule="evenodd" clip-rule="evenodd" d="M160.569 451.807H119.544V455.133H144.805L147.276 452.915L149.008 455.133H160.569V451.807Z" fill="#4F2511"/>
<path fill-rule="evenodd" clip-rule="evenodd" d="M275.713 325.3C275.713 325.3 275.713 362.042 248.453 362.042C229.146 362.042 190.291 362.042 190.291 362.042C190.291 362.042 190.723 372.936 186.92 382.516C183.117 392.095 166.922 432.176 166.922 432.176H147.905L167.4 350.279C169.142 342.963 174.918 337.29 182.264 335.681L229.637 325.3V320.545H275.713V325.3Z" fill="#FFBE68"/>
<path fill-rule="evenodd" clip-rule="evenodd" d="M251.195 328.607L259.561 344.047L260.718 328.425L251.195 328.607Z" fill="#E4A95B"/>
<path d="M260.718 320.545L259.715 338.698C259.239 347.318 252.11 354.064 243.477 354.064H187.928C185.173 354.064 182.74 355.858 181.925 358.489L159.12 432.176" stroke="#F2F3F5" stroke-width="0.5544"/>
<path fill-rule="evenodd" clip-rule="evenodd" d="M210.589 260.47L202.057 281.153L198.035 252.113C197.527 248.484 197.236 246.459 197.164 246.037C196.89 244.439 198.769 241.066 199.001 237.749L199.032 237.234C199.264 233.924 200.392 229.979 200.231 228.867C200.066 227.717 198.567 228.462 197.63 229.211C195.542 230.882 195.696 233.146 194.366 235.912C193.896 236.89 189.434 226.982 187.656 226.982C185.877 226.982 180.47 235.452 180.47 238.125C180.47 239.907 183.13 243.493 188.451 248.883L190.458 294.774C190.708 300.484 195.539 304.911 201.249 304.661C205.021 304.496 208.404 302.29 210.075 298.905L225.534 267.608L210.589 260.47Z" fill="#FFC4A7"/>
<path fill-rule="evenodd" clip-rule="evenodd" d="M217.407 240.417C219.619 235.447 225.51 233.302 230.399 235.686L232.126 236.528C237.008 238.909 238.947 244.86 236.406 249.661L209.219 301.021C204.742 309.477 192.004 306.909 191.154 297.378L187.016 250.968L198.1 248.761L203.002 272.791L217.407 240.417Z" fill="#CF3D7F"/>
<path fill-rule="evenodd" clip-rule="evenodd" d="M219.582 251.494L212.558 294.707L217.523 286.069L219.582 251.494Z" fill="#080708" fill-opacity="0.340226"/>
<path d="M203.002 272.791L205.055 284.406" stroke="#5C042C" stroke-opacity="0.357244" stroke-width="0.924" stroke-linecap="round"/>
<path fill-rule="evenodd" clip-rule="evenodd" d="M281.258 242.196C281.258 238.03 278.108 234.537 273.964 234.108L247.439 231.363L227.531 234C223.729 234.503 220.796 237.595 220.493 241.417L213.621 328.002H281.258V242.196Z" fill="#F2F3F5"/>
<path fill-rule="evenodd" clip-rule="evenodd" d="M267.917 253.338L281.258 302.011V274.306L267.917 253.338Z" fill="#455EC2"/>
<path fill-rule="evenodd" clip-rule="evenodd" d="M258.286 232.42L246.62 328.372L281.258 328.253L281.258 241.843C281.258 237.874 278.264 234.545 274.317 234.125L258.286 232.42Z" fill="#CF3D7F"/>
<path fill-rule="evenodd" clip-rule="evenodd" d="M253.843 267.731L263.672 233.017L258.286 232.42L253.843 267.731Z" fill="#811646"/>
<path fill-rule="evenodd" clip-rule="evenodd" d="M237.481 232.672L226.46 234.348C223.056 234.865 220.46 237.665 220.201 241.099L213.621 328.253L233.082 328.342L237.481 232.672Z" fill="#CF3D7F"/>
<path fill-rule="evenodd" clip-rule="evenodd" d="M235.739 268.511L232.974 233.363L237.465 232.674L235.739 268.511Z" fill="#811646"/>
<path fill-rule="evenodd" clip-rule="evenodd" d="M268.002 258.395L278.768 289.311L281.258 288.246V280.365L268.002 258.395Z" fill="#080708" fill-opacity="0.340226"/>
<path fill-rule="evenodd" clip-rule="evenodd" d="M279.769 272.841L287.711 287.389C287.711 287.389 256.958 299.313 247.05 302.061C243.637 303.007 239.214 294.379 234.219 295.62C232.296 296.098 239.882 303.05 236.261 303.685C228.182 305.102 223.535 306.628 221.883 308.096C220.838 309.024 227.738 315.992 231.687 316.603C233.862 316.939 242.05 314.096 249.703 312.057C255.173 310.599 277.545 305.714 293.55 302.257C302.087 300.413 306.585 290.992 302.634 283.203L293.324 264.848L279.769 272.841Z" fill="#FFC4A7"/>
<path fill-rule="evenodd" clip-rule="evenodd" d="M281.623 240.372C279.132 235.339 272.875 233.505 268.062 236.398L266.533 237.316C261.988 240.047 260.514 245.943 263.239 250.492L285.003 286.823L245.406 302.011L248.896 313.328L297.825 301.641C304.291 300.097 307.644 292.943 304.695 286.985L281.623 240.372Z" fill="#CF3D7F"/>
<path d="M280.824 288.267L250.356 299.813" stroke="#5C042C" stroke-opacity="0.357244" stroke-width="0.924" stroke-linecap="round"/>
<path d="M280.824 305.965L249.234 313.25C249.044 313.294 248.852 313.182 248.797 312.995L248.621 312.403" stroke="#5C042C" stroke-opacity="0.357244" stroke-width="0.924" stroke-linecap="round"/>
<path fill-rule="evenodd" clip-rule="evenodd" d="M254.332 233.865C254.332 237.656 251.259 240.727 247.469 240.727C243.369 240.727 240.183 237.155 240.65 233.082L241.252 227.828C241.252 227.828 232.594 228.514 229.661 224.327C226.729 220.14 227.134 198.333 227.134 198.333L254.332 198.333C254.332 198.333 254.332 203.739 254.332 205.614C262.636 205.614 262.636 215.64 254.332 215.64C254.332 221.6 254.332 228.732 254.332 233.865Z" fill="#FFC4A7"/>
<path fill-rule="evenodd" clip-rule="evenodd" d="M241.15 227.844C241.15 227.844 243.72 227.498 245.699 226.874C247.677 226.25 250.18 224.991 250.18 224.991C250.18 224.991 246.784 228.29 244.998 229.709C243.213 231.127 240.722 232.504 240.722 232.504L241.15 227.844Z" fill="#F19B93"/>
<path fill-rule="evenodd" clip-rule="evenodd" d="M254.332 205.614L253.683 211.618C253.632 212.091 253.232 212.449 252.757 212.449C252.365 212.449 252.015 212.204 251.881 211.836L248.979 203.84C247.97 201.063 245.332 199.214 242.378 199.214H227.085C227.085 199.214 223.914 195.672 222.593 193.236C221.273 190.799 219.781 186.845 219.781 186.845C219.781 186.845 241.217 181.802 247.072 183.373C252.927 184.944 254.332 190.694 254.332 190.694C254.332 190.694 259.727 192.269 261.257 196.053C262.787 199.836 259.103 207.279 259.103 207.279C259.103 207.279 257.945 206.192 256.499 205.899C255.763 205.749 254.332 205.614 254.332 205.614Z" fill="#8A5835"/>
<path fill-rule="evenodd" clip-rule="evenodd" d="M231.691 206.737L227.975 214.025C227.869 214.235 227.982 214.489 228.209 214.55L231.691 215.487V206.737Z" fill="#F19B93"/>
<path fill-rule="evenodd" clip-rule="evenodd" d="M93.2402 324.2H108.36V459.44H93.2402V324.2Z" fill="#A7C3FF"/>
<path fill-rule="evenodd" clip-rule="evenodd" d="M90.7202 324.2H100.8V459.44H90.7202L90.7202 324.2Z" fill="#C8DAFF"/>
<path fill-rule="evenodd" clip-rule="evenodd" d="M17.6401 324.2H100.8V341.918H32.7601V459.44H17.6401V324.2Z" fill="#A7C3FF"/>
<path fill-rule="evenodd" clip-rule="evenodd" d="M15.1201 324.2H25.2001V459.44H15.1201L15.1201 324.2Z" fill="#C8DAFF"/>
<path fill-rule="evenodd" clip-rule="evenodd" d="M252.84 324.2H267.96V459.44H252.84V324.2Z" fill="#A7C3FF"/>
<path fill-rule="evenodd" clip-rule="evenodd" d="M250.32 324.2H260.4V459.44H250.32V324.2Z" fill="#C8DAFF"/>
<path fill-rule="evenodd" clip-rule="evenodd" d="M177.24 324.2H260.4V459.44H192.36H177.24V324.2Z" fill="#A7C3FF"/>
<path fill-rule="evenodd" clip-rule="evenodd" d="M119.28 324.2H184.8V459.44L119.28 459.827L119.28 324.2Z" fill="#C8DAFF"/>
<path fill-rule="evenodd" clip-rule="evenodd" d="M84 321.68C84 320.752 84.7522 320 85.68 320H281.4C282.328 320 283.08 320.752 283.08 321.68V330.92C283.08 331.848 282.328 332.6 281.4 332.6H85.68C84.7522 332.6 84 331.848 84 330.92V321.68Z" fill="#A7C3FF"/>
<path fill-rule="evenodd" clip-rule="evenodd" d="M0 321.68C0 320.752 0.752162 320 1.68 320H197.4C198.328 320 199.08 320.752 199.08 321.68V330.92C199.08 331.848 198.328 332.6 197.4 332.6H1.67999C0.752151 332.6 0 331.848 0 330.92V321.68Z" fill="#C8DAFF"/>
<rect width="6" height="4" rx="2" transform="matrix(-1 0 0 1 37 292)" fill="#4ED266"/>
<path d="M42.782 284.019C42.9005 281.836 41.1617 280 38.9749 280C36.8069 280 35.0752 281.805 35.1655 283.971L36 304H41.6984L42.782 284.019Z" fill="#4ED266"/>
<path d="M44.3674 286.855L43.1345 288.004L43.0001 288H41.0001C39.8955 288 39.0001 288.895 39.0001 290C39.0001 291.104 39.8955 292 41.0001 292H43.0001C43.5012 292 43.9593 291.816 44.3103 291.511C44.5312 291.455 44.7442 291.354 44.936 291.206L46.9735 289.637C47.7698 289.024 47.9183 287.881 47.305 287.085C47.2701 287.039 47.2331 286.996 47.1941 286.954C46.4408 286.146 45.1752 286.102 44.3674 286.855Z" fill="#4ED266"/>
<path fill-rule="evenodd" clip-rule="evenodd" d="M54 301H24V320H54V301Z" fill="#C8DAFF"/>
<path fill-rule="evenodd" clip-rule="evenodd" d="M54 301H40V320H54V301Z" fill="#A7C3FF"/>
<path fill-rule="evenodd" clip-rule="evenodd" d="M57.5202 234.058C57.2443 231.905 58.9211 230 61.091 230L167.232 230C169.043 230 170.573 231.346 170.803 233.142L178.88 296.142C179.156 298.295 177.479 300.2 175.309 300.2H69.1679C67.3567 300.2 65.8275 298.854 65.5972 297.058L57.5202 234.058Z" fill="#FF326F"/>
<path fill-rule="evenodd" clip-rule="evenodd" d="M57.5202 234.058C57.2443 231.905 58.9211 230 61.091 230L163.632 230C165.443 230 166.973 231.346 167.203 233.142L175.28 296.142C175.556 298.295 173.879 300.2 171.709 300.2H69.1679C67.3567 300.2 65.8275 298.854 65.5972 297.058L57.5202 234.058Z" fill="#FF5D8E"/>
<path fill-rule="evenodd" clip-rule="evenodd" d="M118.397 260.502C120.977 258.558 121.25 254.568 119.006 251.591C116.763 248.614 112.852 247.776 110.272 249.721C107.692 251.665 107.419 255.655 109.662 258.632C111.906 261.609 115.816 262.447 118.397 260.502Z" fill="white"/>
<path d="M106.02 275H125.862C127.599 275 129.078 276.237 129.399 277.926L129.429 278.108L132.474 300.2H107.757L106.02 275H125.862H106.02Z" fill="black" fill-opacity="0.0964543"/>
<path fill-rule="evenodd" clip-rule="evenodd" d="M125.842 275C127.83 275 129.442 276.612 129.442 278.6C129.442 278.743 129.434 278.887 129.417 279.029L124.824 317.3H145.2V320H101.1L106.12 278.171C106.337 276.362 107.872 275 109.694 275H125.842ZM107.852 290.714C107.337 294.908 110.319 298.725 114.513 299.24C118.706 299.755 122.523 296.772 123.038 292.579C123.553 288.385 120.571 284.569 116.378 284.054C112.184 283.539 108.367 286.521 107.852 290.714Z" fill="#FF326F"/>
<path fill-rule="evenodd" clip-rule="evenodd" d="M123.142 275C125.13 275 126.742 276.612 126.742 278.6C126.742 278.743 126.734 278.887 126.716 279.029L121.8 320H98.3999L103.419 278.171C103.636 276.362 105.171 275 106.994 275H123.142ZM105.152 290.714C104.637 294.908 107.619 298.725 111.813 299.24C116.006 299.755 119.823 296.772 120.338 292.579C120.853 288.385 117.871 284.569 113.677 284.054C109.484 283.539 105.667 286.521 105.152 290.714Z" fill="#A7C3FF"/>
<path fill-rule="evenodd" clip-rule="evenodd" d="M553 280H404.5V469.615L520 470L553 468V280Z" fill="#C8DAFF"/>
<path fill-rule="evenodd" clip-rule="evenodd" d="M509.5 290.5H413.5V371.5H509.5V290.5Z" fill="#A7C3FF"/>
<path fill-rule="evenodd" clip-rule="evenodd" d="M510 290H457V371H510V290Z" fill="#9AB9FA"/>
<path fill-rule="evenodd" clip-rule="evenodd" d="M509.5 380.5H413.5V461.5H509.5V380.5Z" fill="#A7C3FF"/>
<path fill-rule="evenodd" clip-rule="evenodd" d="M510 380H457V461H510V380Z" fill="#9AB9FA"/>
<path fill-rule="evenodd" clip-rule="evenodd" d="M559 280H520V470L559 468L559 280Z" fill="#A7C3FF"/>
<path fill-rule="evenodd" clip-rule="evenodd" d="M425.537 411.271H456.876V461.244H425.537V411.271Z" fill="#FF5D8E"/>
<path d="M425.537 411.271H434.854V461.244H425.537V411.271Z" fill="#EAEFFF"/>
<path d="M440.783 413.812H463.652L480.592 455.315H457.723L440.783 413.812Z" fill="#FFBF29"/>
<path d="M440.783 413.812C440.783 413.812 437.986 414.874 436.304 416.48C434.623 418.085 434.479 420.234 434.479 420.234L451.606 461.244C451.606 461.244 451.959 458.829 453.583 457.495C455.207 456.161 457.723 455.315 457.723 455.315L440.783 413.812Z" fill="#F5AC00"/>
<path d="M457.723 455.314H480.075C480.075 455.314 477.197 457.258 476.03 458.279C474.862 459.299 473.295 461.243 473.295 461.243H451.615C451.615 461.243 451.948 458.838 453.583 457.495C455.218 456.152 457.723 455.314 457.723 455.314Z" fill="#EFF3FF"/>
<path fill-rule="evenodd" clip-rule="evenodd" d="M490.366 256H498.366L507 280H499L490.366 256Z" fill="#A7C3FF"/>
<path fill-rule="evenodd" clip-rule="evenodd" d="M468.834 232.796C468.931 232.332 469.339 232 469.813 232H505.77C506.405 232 506.879 232.583 506.749 233.204L497.166 279.204C497.069 279.668 496.661 280 496.187 280H460.23C459.595 280 459.121 279.417 459.251 278.796L468.834 232.796Z" fill="#A7C3FF"/>
<path d="M466.834 232.796C466.931 232.332 467.339 232 467.813 232H503.77C504.405 232 504.879 232.583 504.749 233.204L495.166 279.204C495.069 279.668 494.661 280 494.187 280H458.23C457.595 280 457.121 279.417 457.251 278.796L466.834 232.796Z" fill="#EAEFFF"/>
<path fill-rule="evenodd" clip-rule="evenodd" d="M468.809 234.716C468.896 234.299 469.264 234 469.69 234H500.893C501.464 234 501.891 234.525 501.774 235.084L493.191 276.284C493.104 276.701 492.736 277 492.31 277H461.107C460.536 277 460.109 276.475 460.226 275.916L468.809 234.716Z" fill="#C6D9FF"/>
<path fill-rule="evenodd" clip-rule="evenodd" d="M495.75 246.283L498.489 250.85L493.191 276.284C493.104 276.701 492.736 277 492.31 277H461.107C460.61 277 460.207 276.597 460.207 276.1C460.207 276.038 460.213 275.977 460.226 275.916L462.982 262.683L477.389 250.254L483 258.826L495.75 246.283Z" fill="url(#paint1_linear)"/>
<path d="M486.5 247C488.433 247 490 245.433 490 243.5C490 241.567 488.433 240 486.5 240C484.567 240 483 241.567 483 243.5C483 245.433 484.567 247 486.5 247Z" fill="#FFF0D0"/>
<path d="M419 323C419 321.895 419.895 321 421 321H455C456.105 321 457 321.895 457 323V369C457 370.105 456.105 371 455 371H421C419.895 371 419 370.105 419 369V323Z" fill="#B34EE6"/>
<path d="M419 323C419 321.895 419.895 321 421 321H428V371H421C419.895 371 419 370.105 419 369V323Z" fill="#CF6FFF"/>
<path d="M420 321H427V371H420V321Z" fill="#EAEFFF"/>
<rect x="439" y="317" width="38" height="54" rx="2" fill="#40B955"/>
<path d="M439 319C439 317.895 439.895 317 441 317H448V371H441C439.895 371 439 370.105 439 369V319Z" fill="#4ED266"/>
<path fill-rule="evenodd" clip-rule="evenodd" d="M179.901 61.4154L179.902 60.3282C166.887 56.7649 157.322 44.8533 157.322 30.7077C157.322 16.5621 166.887 4.6505 179.902 1.08726L179.901 0H188.03C204.989 0 218.738 13.7483 218.738 30.7077C218.738 47.4975 205.263 61.1401 188.538 61.4113L188.03 61.4154H179.901Z" fill="#A7C3FF"/>
<path fill-rule="evenodd" clip-rule="evenodd" d="M181.708 61.4154C198.667 61.4154 212.415 47.6671 212.415 30.7077C212.415 13.7483 198.667 0 181.708 0C164.748 0 151 13.7483 151 30.7077C151 47.6671 164.748 61.4154 181.708 61.4154Z" fill="#C8DAFF"/>
<path fill-rule="evenodd" clip-rule="evenodd" d="M181.473 58.2544C196.686 58.2544 209.02 45.9213 209.02 30.7078C209.02 15.4942 196.686 3.16113 181.473 3.16113C166.259 3.16113 153.926 15.4942 153.926 30.7078C153.926 45.9213 166.259 58.2544 181.473 58.2544Z" fill="#A7C3FF"/>
<path d="M183.743 3.33894L184.183 3.29248C198.124 4.65377 209.019 16.4083 209.019 30.7075C209.019 45.0067 198.124 56.7612 184.183 58.1225C170.241 56.7618 159.345 45.007 159.345 30.7075C159.345 16.5589 170.012 4.90162 183.743 3.33894L184.183 3.29248L183.743 3.33894Z" fill="#EAEFFF"/>
<path fill-rule="evenodd" clip-rule="evenodd" d="M183.288 7.98597V32.5156C183.288 32.8897 183.591 33.193 183.965 33.193C184.34 33.193 184.643 32.8897 184.643 32.5156V7.98597C184.643 7.61187 184.34 7.30859 183.965 7.30859C183.591 7.30859 183.288 7.61187 183.288 7.98597Z" fill="#A7C3FF"/>
<path fill-rule="evenodd" clip-rule="evenodd" d="M184.647 31.6155L170.571 20.967C170.074 20.5908 169.366 20.6889 168.99 21.1862C168.614 21.6834 168.712 22.3915 169.209 22.7676L183.285 33.4162C183.782 33.7923 184.49 33.6942 184.866 33.197C185.242 32.6997 185.144 31.9917 184.647 31.6155Z" fill="#A7C3FF"/>
<defs>
<linearGradient id="paint0_linear" x1="208.254" y1="246.81" x2="208.221" y2="251.801" gradientUnits="userSpaceOnUse">
<stop stop-color="#D7DDF9"/>
<stop offset="1" stop-color="#F3F3F8"/>
</linearGradient>
<linearGradient id="paint1_linear" x1="532.835" y1="274.367" x2="502.932" y2="226.735" gradientUnits="userSpaceOnUse">
<stop stop-color="#88DDB3"/>
<stop offset="1" stop-color="#8CC9A8"/>
</linearGradient>
</defs>
</svg>
