<?xml version="1.0" encoding="UTF-8"?>
<svg width="600px" height="400px" viewBox="0 0 600 400" version="1.1" xmlns="http://www.w3.org/2000/svg" xmlns:xlink="http://www.w3.org/1999/xlink">
    <title>表示合作</title>
    <g id="表示合作" stroke="none" stroke-width="1" fill="none" fill-rule="evenodd">
        <rect  x="0" y="0" width="600" height="400"></rect>
        <path d="M464.413564,24.6168495 C476.970035,24.6168495 487.338547,33.8749949 489.15045,45.9382296 C491.773841,43.2078827 495.453426,41.5014158 499.536055,41.5014158 C506.515571,41.5014158 512.335433,46.4659286 513.66782,53.0585638 C516.766228,48.662273 521.869965,45.7824413 527.653841,45.7824413 C537.106505,45.7824413 544.769758,53.4529872 544.769758,62.914648 C544.769758,64.6517321 544.507059,66.3257806 544.026644,67.9052755 C545.685606,66.667074 547.736817,65.9250536 549.96526,65.9250536 C555.464844,65.9250536 559.923529,70.3879821 559.923529,75.892801 C559.923529,81.3976199 555.464844,85.8605485 549.96526,85.8605485 L437.994325,85.8605485 C430.67474,85.8605485 424.740623,79.9207832 424.740623,72.5942321 C424.740623,65.2676811 430.67474,59.3279158 437.994325,59.3279158 C439.213356,59.3279158 440.388304,59.5062168 441.510173,59.8150918 C440.1409,56.7164362 439.365398,53.295398 439.365398,49.6888546 C439.366298,35.8417092 450.580484,24.6168495 464.413564,24.6168495 Z" id="cloud_2_" fill="#E7F4FE" fill-rule="nonzero"></path>
        <g id="plant_16_" transform="translate(410.657439, 98.742347)" fill-rule="nonzero">
            <path d="M71.2876817,45.9998622 C65.0296886,56.8537117 32.8706574,90.7128954 27.9189619,83.6519949 C25.4728028,80.1643189 37.252872,67.0096658 48.926782,21.6941913 C53.0211073,5.80108673 63.8502422,-5.35443367 73.8085121,3.33008673 C83.3133564,11.6174821 77.5456747,35.1451122 71.2876817,45.9998622 Z" id="Path" fill="#1B90FB"></path>
            <path d="M27.0148097,84.9118087 C26.9608304,84.8974005 26.9122491,84.8631811 26.8807612,84.811852 C26.8150865,84.7064923 26.8483737,84.5678138 26.9545329,84.5020765 C27.183045,84.3615969 49.9748789,69.8426709 66.2181315,17.8877347 C66.2550173,17.7697679 66.372872,17.7076327 66.4997232,17.740051 C66.6184775,17.7778724 66.6841522,17.9030434 66.6472664,18.0228112 C58.1329412,45.2569413 47.8687889,61.9785153 40.7570242,71.2105459 C33.0388927,81.2296224 27.2487197,84.850574 27.1902422,84.8865944 C27.1353633,84.9192846 27.0714879,84.9271173 27.0148097,84.9118087 Z" id="Path" fill="#F3F9FF"></path>
            <path d="M74.0343253,28.949602 C61.4994464,39.0695357 23.3685121,85.8159209 29.7443599,95.8440026 C36.1202076,105.872985 97.4523183,64.8430383 109.986298,54.7231046 C122.520277,44.6031709 125.718547,28.4687296 116.912734,21.6536684 C103.031073,10.9087806 86.5683045,18.8296684 74.0343253,28.949602 Z" id="Path" fill="#9E95E3"></path>
            <path d="M28.4812457,97.4370051 C28.4515571,97.4289005 28.4236678,97.4153929 28.3984775,97.3955816 C28.3013149,97.3181378 28.2851211,97.1767577 28.3624913,97.0795026 C28.4542561,96.9642372 37.6676125,85.4115918 51.4179239,71.6977219 C64.1111419,59.037449 83.3790311,41.8917347 103.083253,32.1085918 C103.19391,32.0545612 103.328858,32.0986862 103.384637,32.21125 C103.439516,32.3220128 103.394533,32.4570893 103.282976,32.5129209 C83.6345329,42.268148 64.4089273,59.3769413 51.74,72.0129005 C38.0076817,85.7087602 28.8069204,97.2442959 28.7151557,97.3595612 C28.6566782,97.431602 28.5649135,97.4595179 28.4812457,97.4370051 Z" id="Path" fill="#F3F9FF"></path>
            <path d="M76.8862284,67.2095791 C65.4579239,69.406824 28.6395848,87.0739337 30.9076125,95.5045102 C33.1756401,103.935087 86.5323183,104.401551 97.9606228,102.204306 C109.388927,100.007061 118.147059,93.9853495 113.397785,79.8374337 C109.003875,66.7476173 88.3145329,65.0123342 76.8862284,67.2095791 Z" id="Path" fill="#1B90FB"></path>
            <path d="M0.15384083,110.50701 C0.130449827,110.487199 0.111557093,110.462885 0.0980622837,110.433168 C0.044083045,110.320605 0.0908650519,110.186429 0.203321799,110.133298 C0.335570934,110.069362 13.6594464,103.691949 32.00609,97.3478546 C48.9438754,91.4918367 73.7509343,84.4669566 95.7447751,84.2580322 C95.8680277,84.2571378 95.9696886,84.3561939 95.9715116,84.4813648 C95.9732872,84.6056352 95.872526,84.7073929 95.7483737,84.7082934 C73.816609,84.9154107 49.0626298,91.9258827 32.1581315,97.7710944 C13.8348789,104.106184 0.530795848,110.474592 0.398546713,110.538528 C0.314878893,110.579051 0.219515571,110.562842 0.15384083,110.50701 Z" id="Path" fill="#F3F9FF"></path>
        </g>
        <g id="cog_5_" transform="translate(40.000000, 216.709184)" fill="#E7F4FE" fill-rule="nonzero">
            <path d="M111.641661,30.3994235 C110.730311,28.195875 108.391211,26.9432653 106.05391,27.4061276 L98.6713495,28.8676556 C96.930519,29.212551 95.1303114,28.6056071 93.953564,27.2764541 C92.7084429,25.8680561 91.3895502,24.5425051 90.0004844,23.3052041 C88.6770934,22.1264362 88.0770242,20.3326199 88.420692,18.5928342 L89.8790311,11.2158546 C90.3414533,8.87632908 89.0900346,6.53590306 86.8885813,5.62278571 L75.9892734,1.10402551 C73.7887197,0.191808673 71.2498962,0.960844388 69.9238062,2.94196684 L65.7440138,9.18970663 C64.7597924,10.6611403 63.0639446,11.5067194 61.2979239,11.4040612 C59.4419377,11.296 57.5724567,11.299602 55.6975779,11.4139668 C53.9243599,11.5220281 52.2267128,10.67825 51.2379931,9.20051276 L47.0510035,2.94196684 C45.7249135,0.959943878 43.1869896,0.190908163 40.9855363,1.10402551 L30.0862284,5.62278571 C27.8847751,6.53500255 26.6333564,8.87632908 27.0957785,11.2158546 L28.5568166,18.6045408 C28.9013841,20.3470281 28.2950173,22.148949 26.967128,23.3268163 C25.5600692,24.5731224 24.2357785,25.8932704 22.999654,27.2836582 C21.8220069,28.6083087 20.0298962,29.208949 18.2917647,28.8649541 L10.9217993,27.405227 C8.58449827,26.9423648 6.24629758,28.1949745 5.33404844,30.398523 L0.819584775,41.3082041 C-0.0917647059,43.510852 0.676539792,46.0520918 2.65577855,47.3794439 L8.89757785,51.5632143 C10.3676125,52.5483724 11.2123875,54.2458342 11.109827,56.0135357 C11.0018685,57.8712883 11.0054671,59.7425485 11.1197232,61.6192117 C11.2276817,63.3941173 10.3847059,65.0942806 8.9083737,66.0830408 L2.65577855,70.2740153 C0.676539792,71.6004668 -0.0926643599,74.1426071 0.819584775,76.3452551 L5.33404844,87.2549362 C6.24539792,89.4584847 8.58449827,90.7110944 10.9217993,90.2482321 L18.3034602,88.7858036 C20.0442907,88.4409082 21.8444983,89.047852 23.0212457,90.3770051 C24.2663668,91.7845026 25.5852595,93.1109541 26.9743253,94.3482551 C28.2977163,95.527023 28.8986851,97.3208393 28.5541176,99.060625 L27.0957785,106.436704 C26.6333564,108.77623 27.8847751,111.116656 30.0862284,112.029773 L40.9855363,116.548533 C43.1869896,117.461651 45.7258131,116.691714 47.0510035,114.710592 L51.2307958,108.462852 C52.2150173,106.991418 53.9108651,106.145839 55.6768858,106.248497 C57.532872,106.356559 59.4023529,106.352957 61.2772318,106.238592 C63.0504498,106.130531 64.7480969,106.974309 65.7368166,108.452046 L69.9238062,114.710592 C71.2498962,116.691714 73.7878201,117.461651 75.9892734,116.548533 L86.8885813,112.029773 C89.0900346,111.117556 90.3414533,108.77623 89.8790311,106.436704 L88.4179931,99.0471173 C88.0734256,97.3046301 88.6797924,95.5027092 90.0076817,94.3257423 C91.4147405,93.0794362 92.7390311,91.7583878 93.9751557,90.3689005 C95.1537024,89.04425 96.9449135,88.4436097 98.683045,88.7876046 L106.05301,90.2464311 C108.390311,90.7092934 110.728512,89.4566837 111.640761,87.2531352 L116.155225,76.3434541 C117.066574,74.1399056 116.29827,71.5986658 114.319031,70.2722143 L108.077232,66.0884439 C106.607197,65.1023852 105.762422,63.405824 105.864983,61.6381224 C105.972941,59.7803699 105.969343,57.9091097 105.855087,56.0324464 C105.747128,54.2575408 106.590104,52.5573776 108.066436,51.5686173 L114.319031,47.3776429 C116.29827,46.0502908 117.067474,43.509051 116.155225,41.3064031 L111.641661,30.3994235 Z M68.0507266,81.9392245 C55.2999308,87.2261199 40.6805536,81.1647857 35.3986851,68.4018546 C30.1168166,55.6389235 36.1723875,41.0056327 48.9231834,35.7187372 C61.6739792,30.4318418 76.2933564,36.493176 81.5752249,49.2561071 C86.8570934,62.0199388 80.8024221,76.6523291 68.0507266,81.9392245 Z" id="Shape"></path>
        </g>
        <g id="plant_15_" transform="translate(58.892734, 49.214286)" fill-rule="nonzero">
            <path d="M60.413564,90.7237015 C73.1607612,89.6403878 125.249827,101.912541 125.754533,113.78937 C126.003737,119.656194 106.463253,115.772293 67.3364014,138.188694 C53.6139792,146.051048 36.2245675,141.717793 31.8306574,122.319903 C27.6382699,103.809015 47.6663668,91.8061148 60.413564,90.7237015 Z" id="Path" fill="#44D690"></path>
            <path d="M127.326228,114.180191 C127.263253,114.215311 127.184983,114.218913 127.115709,114.181092 C127.038339,114.138768 119.241938,109.954997 105.661661,108.562809 C93.126782,107.277781 72.9601384,108.175589 48.0694118,119.751648 C47.9614533,119.802977 47.8319031,119.75525 47.7815225,119.647189 C47.7311419,119.537327 47.7689273,119.400449 47.886782,119.359026 C72.8791696,107.73524 93.1375779,106.838332 105.730934,108.134166 C119.389481,109.538962 127.24436,113.757852 127.32263,113.800176 C127.427889,113.857809 127.466574,113.989283 127.408997,114.094643 C127.390104,114.131564 127.360415,114.161281 127.326228,114.180191 Z" id="Path" fill="#F3F9FF"></path>
            <path d="M47.2975087,101.195735 C65.7152249,108.482663 131.517716,117.664265 131.440414,101.609969 C131.362976,85.5556735 46.4383391,42.9939592 28.0197232,35.7070306 C9.60110727,28.420102 -3.39439446,37.5881964 1.01930796,54.0378163 C7.97813149,79.9689082 28.8788927,93.9088061 47.2975087,101.195735 Z" id="Path" fill="#8AE6B9"></path>
            <path d="M133.563529,102.172788 C133.523945,102.194401 133.478962,102.205207 133.43128,102.198903 C132.793426,102.120559 69.0205536,93.9934541 20.8143945,62.5512398 C20.7145329,62.4855026 20.6857439,62.3513265 20.750519,62.2504694 C20.8152941,62.1487117 20.9502422,62.1216964 21.0510035,62.1865332 C69.1716955,93.5738163 132.846505,101.690115 133.48436,101.768459 C133.603114,101.782867 133.687682,101.890929 133.673287,102.009796 C133.664291,102.080936 133.622007,102.139469 133.563529,102.172788 Z" id="Path" fill="#F3F9FF"></path>
            <path d="M67.9409689,66.5341964 C80.4299654,78.8982015 127.148097,110.112587 130.098062,100.44561 C133.048028,90.7786327 81.3053287,24.3281837 68.8163322,11.9650791 C56.3273356,-0.39802551 44.1001384,-6.34409439 40.0696886,11.0492602 C36.3397232,27.140477 55.4519723,54.1710918 67.9409689,66.5341964 Z" id="Path" fill="#FFCB01"></path>
            <path d="M131.651765,101.73424 C131.577993,101.775663 131.483529,101.771161 131.412457,101.71623 C130.968028,101.369533 86.5755017,66.586426 56.2139792,26.8153929 C56.1411073,26.7199388 56.16,26.5839617 56.2553633,26.5110204 C56.3462284,26.4353776 56.4856747,26.4560893 56.5594464,26.5515434 C86.886782,66.2784515 131.235225,101.027339 131.679654,101.374036 C131.774118,101.446977 131.791211,101.583855 131.717439,101.678408 C131.698547,101.701821 131.676055,101.720732 131.651765,101.73424 Z" id="Path" fill="#F3F9FF"></path>
        </g>
        <g id="presentation" transform="translate(121.868512, 24.000000)" fill-rule="nonzero">
            <path d="M177.231834,350.47677 C174.747889,350.47677 172.733564,348.461429 172.733564,345.974219 L172.733564,4.50255102 C172.733564,2.01534184 174.747889,0 177.231834,0 C179.715779,0 181.730104,2.01534184 181.730104,4.50255102 L181.730104,345.974219 C181.730104,348.461429 179.715779,350.47677 177.231834,350.47677 Z" id="Path" fill="#7491C5"></path>
            <path d="M266.29308,350.477671 C265.522076,350.477671 264.741176,350.278658 264.027751,349.860821 L174.962007,297.752798 C172.817232,296.497487 172.09481,293.741026 173.348028,291.593309 C174.602145,289.445592 177.356886,288.722482 179.501661,289.978694 L268.567405,342.086717 C270.71218,343.342028 271.434602,346.09849 270.181384,348.246207 C269.344706,349.678918 267.839585,350.477671 266.29308,350.477671 Z" id="Path" fill="#7491C5"></path>
            <path d="M87.7207612,350.477671 C86.1742561,350.477671 84.6691349,349.678918 83.8324567,348.246207 C82.5792388,346.09849 83.3016609,343.342028 85.446436,342.086717 L174.51218,289.978694 C176.656055,288.723383 179.411696,289.446492 180.665813,291.593309 C181.919031,293.741026 181.196609,296.497487 179.051834,297.752798 L89.98609,349.860821 C89.2726644,350.279559 88.4917647,350.477671 87.7207612,350.477671 Z" id="Path" fill="#7491C5"></path>
            <path d="M339.317093,43.2695153 L15.1465744,43.2695153 C7.0083045,43.2695153 0.411141869,36.666074 0.411141869,28.5200587 L0.411141869,28.5200587 C0.411141869,20.3740434 7.0083045,13.770602 15.1465744,13.770602 L339.317993,13.770602 C347.456263,13.770602 354.053426,20.3740434 354.053426,28.5200587 L354.053426,28.5200587 C354.053426,36.666074 347.455363,43.2695153 339.317093,43.2695153 Z" id="Path" fill="#224380"></path>
            <path d="M326.551903,249.756505 L27.9117647,249.756505 C20.8611765,249.756505 15.1465744,244.035564 15.1465744,236.979166 L15.1465744,43.2695153 L339.317993,43.2695153 L339.317993,236.978265 C339.317993,244.035564 333.602491,249.756505 326.551903,249.756505 Z" id="Path" fill="#F3F9FF"></path>
            <rect id="Rectangle" fill="#AEC1E8" x="15.1465744" y="43.2695153" width="324.171419" height="7.37427806"></rect>
        </g>
        <g id="man_on_ladder_2_" transform="translate(105.674740, 159.076531)" fill-rule="nonzero">
            <rect id="Rectangle" fill="#183168" x="5.55806228" y="15.4734668" width="44.8873356" height="3.60204082"></rect>
            <rect id="Rectangle" fill="#183168" x="6.6232526" y="44.4194668" width="44.1235294" height="3.60204082"></rect>
            <rect id="Rectangle" fill="#183168" x="5.176609" y="81.7861378" width="45.2687889" height="3.60204082"></rect>
            <rect id="Rectangle" fill="#183168" x="5.82076125" y="115.793005" width="38.3972318" height="3.60204082"></rect>
            <rect id="Rectangle" fill="#183168" x="5.79197232" y="187.618599" width="44.5049827" height="3.60204082"></rect>
            <rect id="Rectangle" fill="#183168" x="5.55806228" y="149.284781" width="44.5049827" height="3.60204082"></rect>
            <rect id="Rectangle" fill="#183168" x="3.66069204" y="0.538505102" width="3.59861592" height="216.462842"></rect>
            <rect id="Rectangle" fill="#183168" x="47.5008304" y="0.538505102" width="3.59861592" height="216.462842"></rect>
            <path d="M19.3956401,178.214571 L17.609827,183.414117 C17.609827,183.414117 13.9806228,186.70098 12.0994464,182.016526 C12.0994464,182.016526 12.6842215,178.856635 12.8974394,177.702181 C13.1115571,176.546827 19.3956401,178.214571 19.3956401,178.214571 Z" id="Path" fill="#F1B282"></path>
            <path d="M11.5317647,178.540556 L20.6389619,178.540556 C20.6389619,178.540556 29.1631834,145.037074 31.5346713,136.161645 C33.4023529,129.171885 35.5741176,106.067495 34.7122491,95.306398 C33.8899654,85.0468852 16.452872,90.6030332 15.5433218,97.8089158 C12.8767474,118.931283 17.8392388,134.597459 17.5846367,138.291352 C13.2582007,149.245158 11.5317647,178.540556 11.5317647,178.540556 Z" id="Path" fill="#102B5E"></path>
            <path d="M36.5151557,29.3539311 C37.6163322,31.722273 37.0765398,33.0118036 37.346436,34.0095689 C37.6172318,35.0082347 38.6509343,37.022676 38.6941176,37.9781173 C38.7382007,38.9335587 37.723391,39.0641327 37.5047751,40.3131403 C37.2852595,41.562148 37.8601384,43.1893699 37.0999308,44.4978112 C36.3397232,45.8062526 33.3861592,45.5045816 33.560692,46.7670969 C33.7343253,48.0305128 35.5957093,52.7185689 35.5957093,52.7185689 L23.4539792,52.9139796 C23.4539792,52.9139796 23.9388927,46.0899133 23.3208304,43.2686148 C22.7036678,40.4473163 21.3343945,30.0860459 23.8552249,28.8289337 C26.3760554,27.5718214 35.3465052,26.8397066 36.5151557,29.3539311 Z" id="Path" fill="#F1B282"></path>
            <path d="M29.8487197,23.9814872 C19.7474048,24.2966658 16.2036678,26.8442092 16.3188235,34.7443852 C16.3871972,39.4531531 18.9835986,45.9710459 22.3914879,45.9494873 C24.8493426,45.934125 29.6939792,45.6603699 30.5432526,44.3159082 C32.5584775,41.1254005 30.8329412,36.7210051 32.1833218,35.2009439 C34.1022837,33.0397194 38.4647059,34.15275 37.8646367,26.7091327 C37.2663668,19.2655153 33.2107266,23.8761276 29.8487197,23.9814872 Z" id="Path" fill="#0B224E"></path>
            <path d="M6.91114187,21.7293112 C6.91114187,21.7293112 5.18920415,16.9295918 5.49688581,14.3622372 C5.99259516,10.2270944 15.8249135,10.2081837 16.2477509,13.7895128 C16.6966782,17.5914668 14.9261592,18.5865306 13.7692042,19.5788929 C12.6122491,20.5712551 11.2906574,22.3083393 10.9595848,22.9702143 C10.6285121,23.6320893 7.40685121,23.6311888 6.91114187,21.7293112 Z" id="Path" fill="#F1B282"></path>
            <path d="M77.6419377,48.7058954 C77.6419377,48.7058954 81.2531488,45.1074566 82.0745329,42.6571684 C83.3970242,38.7084311 74.5228374,34.4733316 72.6065744,37.5269617 C70.5724567,40.769699 71.7465052,42.4284388 72.3672664,43.8206276 C72.987128,45.2137168 73.4378547,47.349727 73.4531488,48.0899464 C73.4684429,48.8292653 76.3797232,50.212449 77.6419377,48.7058954 Z" id="Path" fill="#F1B282"></path>
            <path d="M43.3948097,170.28648 L40.7795156,175.121319 C40.7795156,175.121319 36.66,177.766117 35.5741176,172.835824 C35.5741176,172.835824 36.6689965,169.815513 37.0693426,168.711487 C37.4696886,167.608362 43.3948097,170.28648 43.3948097,170.28648 Z" id="Path" fill="#F1B282"></path>
            <path d="M43.1303114,95.75125 C43.1303114,95.75125 60.6690657,120.605332 61.0964014,125.594158 C61.8674048,134.597459 44.7047059,170.351316 44.7047059,170.351316 L35.8278201,168.444936 C35.8278201,168.444936 41.7736332,141.494467 46.4707266,132.30476 C37.4364014,120.077633 23.1238062,113.249064 23.1238062,97.2785153 C23.1229066,92.9488622 43.1303114,95.75125 43.1303114,95.75125 Z" id="Path" fill="#0B224E"></path>
            <path d="M24.6496194,50.8878316 C27.2496194,50.7122321 32.0888581,50.9778827 34.9065744,50.9247526 C42.122699,50.7887755 51.8722491,57.2103138 59.6875433,59.5057143 C64.7939792,53.9738801 72.2817993,45.1948061 72.2817993,45.1948061 L78.5793772,49.0877117 C78.5793772,49.0877117 67.3391003,68.4937066 60.4288581,69.6058367 C56.2472664,70.2794184 49.5250519,70.0218724 44.3079585,67.8561454 C44.3079585,74.3551276 52.6261592,99.8242577 46.51391,101.121893 C40.4016609,102.419528 30.7708651,100.195268 24.8439446,101.121893 C18.9170242,102.048518 12.4350173,106.497939 13.9167474,95.3748367 C15.3984775,84.2517347 21.8813841,85.4476122 7.99072664,64.2261888 C4.35252595,58.6682398 0.116955017,50.5726531 0.759307958,43.7837066 C2.01432526,30.5137883 5.23508651,20.5388367 5.23508651,20.5388367 L12.1273356,21.6509668 C12.1273356,21.6509668 11.5326644,35.6214821 10.0509343,43.7792041 C11.5326644,47.7045281 13.7683045,50.4069592 16.3206228,53.1985408 C17.7168858,54.7285077 20.5795848,50.741949 24.6496194,50.8878316 Z" id="Path" fill="#1B90FB"></path>
            <path d="M11.9447059,180.776523 C11.226782,180.68287 10.467474,181.454607 10.4971626,184.321832 C10.5268512,187.189056 10.3955017,188.707316 12.6176471,189.01439 C14.01391,189.207099 19.2750865,187.814911 24.3995156,187.906763 C26.2501038,187.940082 29.6543945,187.070189 30.8473356,185.478087 C31.0911419,185.153003 31.1451211,184.684737 30.9849827,184.286712 C30.8248443,183.888686 30.4811765,183.638344 30.110519,183.649151 C25.9820069,183.765316 25.9100346,184.166944 22.5687197,181.791398 C21.3559862,180.928709 20.3429758,180.122753 19.7033218,180.078628 C18.4582007,179.993079 17.8833218,181.652719 15.8546021,181.435696 C13.8249827,181.220474 13.187128,180.939515 11.9447059,180.776523 Z" id="Path" fill="#0B224E"></path>
            <path d="M35.5102422,171.442735 C34.7590311,171.295051 33.7802076,172.295518 33.4032526,174.944819 C33.0262976,177.59412 32.263391,179.71212 34.5862976,180.184888 C36.0455363,180.482056 43.6395156,179.708518 49.0842215,180.229913 C51.0508651,180.41812 53.3557785,179.463579 54.8537024,178.095704 C55.1595848,177.816546 55.283737,177.388804 55.169481,177.007888 C55.0552249,176.626972 54.7250519,176.366724 54.3283045,176.344212 C49.9146021,176.100173 49.7805536,176.46488 46.5597924,173.987577 C45.3902422,173.087967 44.4276125,172.257696 43.7519723,172.163143 C42.4384775,171.978538 41.6485813,173.108679 39.5191003,172.736768 C37.3896194,172.363957 36.8093426,171.69848 35.5102422,171.442735 Z" id="Path" fill="#0B224E"></path>
        </g>
        <g id="text" transform="translate(313.494810, 94.239796)" fill="#C3D3F3" fill-rule="nonzero">
            <path d="M106.442561,7.50395153 L3.63910035,7.50395153 C1.81730104,7.50395153 0.340069204,6.02531378 0.340069204,4.20178061 L0.340069204,4.20178061 C0.340069204,2.37824745 1.81730104,0.899609694 3.63910035,0.899609694 L106.442561,0.899609694 C108.26436,0.899609694 109.741592,2.37824745 109.741592,4.20178061 L109.741592,4.20178061 C109.741592,6.02621429 108.26436,7.50395153 106.442561,7.50395153 Z" id="Path"></path>
            <path d="M106.442561,27.315176 L3.63910035,27.315176 C1.81730104,27.315176 0.340069204,25.8365383 0.340069204,24.0130051 L0.340069204,24.0130051 C0.340069204,22.1894719 1.81730104,20.7108342 3.63910035,20.7108342 L106.442561,20.7108342 C108.26436,20.7108342 109.741592,22.1894719 109.741592,24.0130051 L109.741592,24.0130051 C109.741592,25.8374388 108.26436,27.315176 106.442561,27.315176 Z" id="Path"></path>
            <path d="M106.442561,47.1264005 L3.63910035,47.1264005 C1.81730104,47.1264005 0.340069204,45.6477628 0.340069204,43.8242296 L0.340069204,43.8242296 C0.340069204,42.0006964 1.81730104,40.5220587 3.63910035,40.5220587 L106.442561,40.5220587 C108.26436,40.5220587 109.741592,42.0006964 109.741592,43.8242296 L109.741592,43.8242296 C109.741592,45.6486633 108.26436,47.1264005 106.442561,47.1264005 Z" id="Path"></path>
            <path d="M106.442561,66.937625 L3.63910035,66.937625 C1.81730104,66.937625 0.340069204,65.4589872 0.340069204,63.6354541 L0.340069204,63.6354541 C0.340069204,61.8119209 1.81730104,60.3332832 3.63910035,60.3332832 L106.442561,60.3332832 C108.26436,60.3332832 109.741592,61.8119209 109.741592,63.6354541 L109.741592,63.6354541 C109.741592,65.4598878 108.26436,66.937625 106.442561,66.937625 Z" id="Path"></path>
            <path d="M106.442561,86.7488495 L3.63910035,86.7488495 C1.81730104,86.7488495 0.340069204,85.2702117 0.340069204,83.4466786 L0.340069204,83.4466786 C0.340069204,81.6231454 1.81730104,80.1445077 3.63910035,80.1445077 L106.442561,80.1445077 C108.26436,80.1445077 109.741592,81.6231454 109.741592,83.4466786 L109.741592,83.4466786 C109.741592,85.2711122 108.26436,86.7488495 106.442561,86.7488495 Z" id="Path"></path>
            <path d="M106.442561,106.560074 L3.63910035,106.560074 C1.81730104,106.560074 0.340069204,105.081436 0.340069204,103.257903 L0.340069204,103.257903 C0.340069204,101.43437 1.81730104,99.9557321 3.63910035,99.9557321 L106.442561,99.9557321 C108.26436,99.9557321 109.741592,101.43437 109.741592,103.257903 L109.741592,103.257903 C109.741592,105.082337 108.26436,106.560074 106.442561,106.560074 Z" id="Path"></path>
            <path d="M106.442561,126.371298 L3.63910035,126.371298 C1.81730104,126.371298 0.340069204,124.892661 0.340069204,123.069128 L0.340069204,123.069128 C0.340069204,121.245594 1.81730104,119.766957 3.63910035,119.766957 L106.442561,119.766957 C108.26436,119.766957 109.741592,121.245594 109.741592,123.069128 L109.741592,123.069128 C109.741592,124.893561 108.26436,126.371298 106.442561,126.371298 Z" id="Path"></path>
            <path d="M106.442561,146.182523 L3.63910035,146.182523 C1.81730104,146.182523 0.340069204,144.703885 0.340069204,142.880352 L0.340069204,142.880352 C0.340069204,141.056819 1.81730104,139.578181 3.63910035,139.578181 L106.442561,139.578181 C108.26436,139.578181 109.741592,141.056819 109.741592,142.880352 L109.741592,142.880352 C109.741592,144.704786 108.26436,146.182523 106.442561,146.182523 Z" id="Path"></path>
        </g>
        <g id="piece_of_chart" transform="translate(407.958478, 241.923469)" fill-rule="nonzero">
            <path d="M35.3348097,0.815862245 C44.5238754,5.25807908 50.2618685,11.4418827 50.2618685,18.3235816 C50.2618685,25.1755638 44.5229758,31.3890842 35.3348097,35.8015842 L0.322076125,18.3235816 L35.3348097,0.815862245 Z" id="Path" fill="#7266D5"></path>
            <path d="M35.3348097,35.8015842 L35.3348097,35.8015842 L35.3348097,47.9566709 C42.543737,44.4942092 50.2618685,38.5148214 50.2618685,30.4786684 L50.2618685,18.3235816 C50.2618685,26.3759439 42.5581315,32.3319184 35.3348097,35.8015842 Z" id="Path" fill="#877CD8"></path>
            <polygon id="Path" fill="#5F50D0" points="35.3348097 35.8015842 35.3348097 47.9557704 0.322076125 30.4777679 0.322076125 18.3226811"></polygon>
        </g>
        <g id="woman_8_" transform="translate(424.152249, 222.112245)" fill-rule="nonzero">
            <path d="M27.0319031,66.5603112 C27.0319031,66.5603112 17.4155017,87.3792066 15.5010381,101.428967 C14.1344637,111.462452 13.9842215,145.288316 11.1934948,147.336977 C7.78290657,149.840395 3.68768166,152.550031 3.68768166,152.550031 L5.53737024,153.846765 C5.53737024,153.846765 16.4987543,152.58425 16.9773702,151.484727 C17.4559862,150.386105 18.2116955,146.068158 18.7541869,143.432365 C21.3244983,130.94589 25.4683045,123.028605 25.0976471,108.340383 C27.8388927,103.324541 31.4968858,97.341551 31.4968858,97.341551 C31.4968858,97.341551 32.3911419,66.1775944 27.0319031,66.5603112 Z" id="Path" fill="#F1B282"></path>
            <path d="M17.1968858,149.819684 C18.2782699,149.943054 17.3768166,153.711689 16.0894118,154.836426 C16.1298962,154.839128 11.3284429,154.783296 11.3284429,154.783296 L11.4121107,153.548696 C11.4121107,153.548696 7.07757785,155.032737 4.7816609,154.876048 C2.42096886,154.715758 0.491211073,154.432997 0.517301038,154.04848 C0.554186851,153.508173 3.73446367,151.859339 4.41730104,151.906166 C5.36193772,151.970102 6.23820069,153.180388 7.04429066,153.194796 C7.85217993,153.209204 16.3152249,149.719727 17.1968858,149.819684 Z" id="Path" fill="#0B224E"></path>
            <path d="M55.3341176,134.836094 C50.8853287,125.468987 48.8835986,111.790237 41.2581315,102.660865 C42.5716263,93.0866403 48.5660208,87.7718291 48.5660208,76.6631352 C48.5660208,71.087176 46.300692,67.1996735 46.300692,67.1996735 L27.0328028,66.5612117 C27.0328028,66.5612117 25.0058824,87.2297219 30.3138408,105.791038 C32.3839446,113.03024 52.7143253,136.272408 51.4377163,142.13563 C50.5371626,146.271673 48.2268512,150.331173 48.2268512,150.331173 L50.6577163,150.423026 C50.6577163,150.423026 59.1468512,143.245959 58.9561246,142.062689 C58.7644983,140.877617 56.4883737,137.266571 55.3341176,134.836094 Z" id="Path" fill="#F1B282"></path>
            <path d="M41.1357785,8.98168878 C39.3850519,9.56792092 39.517301,12.5729235 38.9712111,13.4464184 C38.4260208,14.3208138 37.5326644,15.530199 37.5848443,16.2136862 C37.6379239,16.8971735 39.3913495,16.8719592 39.2537024,18.5442066 C39.1160554,20.2164541 39.0980623,22.2975332 41.6530796,22.8207296 C44.2080969,23.343926 43.8041522,25.6303214 43.9004152,27.7933469 C43.9966782,29.9563724 44.319654,30.580426 45.195917,30.5399031 C45.687128,30.5173903 48.1836678,30.0338163 50.8610381,28.0535944 C52.9626298,26.4984133 55.4168858,21.9508367 54.976955,19.3456607 C54.1285813,14.3280179 52.2617993,10.2604133 48.1800692,9.11946684 C44.0983391,7.97852041 42.6148097,8.48730867 41.1357785,8.98168878 Z" id="Path" fill="#F1B282"></path>
            <path d="M58.2957785,140.729033 C59.2719031,140.248161 60.5476125,143.906934 60.0707958,145.550365 C60.1058824,145.530554 56.0358478,148.078997 56.0358478,148.078997 L55.4402768,146.994783 C55.4402768,146.994783 52.592872,150.586018 50.5758478,151.696347 C48.5021453,152.837293 46.7262284,153.642349 46.5408997,153.304658 C46.28,152.830089 48.0676125,149.723329 48.6676817,149.392842 C49.4971626,148.936283 50.8880277,149.481092 51.5744637,149.056952 C52.2591003,148.633712 57.4995848,141.121656 58.2957785,140.729033 Z" id="Path" fill="#0B224E"></path>
            <path d="M47.2102422,65.0726684 C47.2102422,69.0349133 50.1494118,70.7539872 49.6465052,78.7694286 C49.1435986,86.7848699 44.5337716,98.4978061 42.6391003,99.7513163 C40.7435294,101.003926 16.4123875,100.591492 15.555917,98.9435587 C13.2824913,94.5688801 25.5051903,66.8853954 27.8703806,65.0735689 C30.2364706,63.2617423 47.2102422,65.0726684 47.2102422,65.0726684 Z" id="Path" fill="#0B224E"></path>
            <path d="M47.2102422,65.0726684 C47.2102422,56.4655918 55.6121107,51.5866276 55.6858824,36.4265383 C55.6858824,29.339523 51.3693426,26.8252985 44.6849135,26.8234974 C40.2316263,26.8216964 30.8644291,36.3635026 30.8572318,39.3784107 C30.8500346,42.3933189 32.6061592,46.3141403 32.6061592,49.4317066 C32.6061592,55.0589949 27.6967474,60.7988469 27.6967474,65.0726684 L47.2102422,65.0726684 L47.2102422,65.0726684 Z" id="Path" fill="#2CCD7F"></path>
            <path d="M49.2974394,38.6219821 C49.2974394,38.6219821 48.1971626,55.6218138 31.0326644,62.4665918 C29.4726644,63.0870434 28.9571626,63.6237474 27.7804152,64.0839082 C28.1285813,61.7416811 29.6328028,59.0239413 30.8653287,56.1657219 L44.6876125,47.2020434 C44.6876125,47.2020434 47.7653287,42.0024974 49.2974394,38.6219821 Z" id="Path" fill="#1EAF69"></path>
            <path d="M44.6849135,47.2002423 C44.6849135,47.2002423 38.5861592,55.1823648 33.2206228,58.1306352 C22.3546021,64.1019184 13.3949481,65.3500255 13.3949481,65.3500255 C13.3949481,65.3500255 3.45916955,67.5409668 1.94685121,63.2104133 C1.40615917,61.6624362 3.74435986,63.6867832 8.65737024,62.8565128 C10.2524567,62.5368316 8.46574394,61.3238444 7.89176471,60.3657015 C7.31778547,59.4075587 8.84899654,59.0248418 11.0819377,60.6214464 C13.3148789,62.218051 21.3595848,58.642125 29.0156401,52.4475153 C36.5268512,46.3699719 38.2146021,40.9470995 38.2146021,40.9470995 C38.2146021,40.9470995 42.260346,45.4766658 44.6849135,47.2002423 Z" id="Path" fill="#F1B282"></path>
            <path d="M40.7012457,9.83357143 C40.7012457,9.83357143 37.6460208,9.63005612 37.6460208,6.59623724 C37.6460208,1.15175255 50.0405536,-2.77357143 54.9805536,3.84067602 C59.9205536,10.4549235 59.802699,19.2637143 65.8258824,23.823898 C71.8490657,28.3840816 65.1565398,39.9277219 58.7995848,40.0952168 C52.4426298,40.2627117 45.9174394,33.9267219 47.9254671,28.4011913 C49.9334948,22.8747602 52.163737,15.4509541 48.5390311,16.7909133 C44.912526,18.1308724 46.4167474,9.57422449 40.7012457,9.83357143 Z" id="Path" fill="#0B224E"></path>
            <path d="M45.7078201,22.3551658 C45.7078201,22.3551658 45.1113495,23.6708112 43.7114879,24.7496224 C43.5288581,23.9697806 43.1276125,23.3358214 42.2450519,22.9954286 C42.8892042,23.1052908 44.0641522,23.1169974 45.7078201,22.3551658 Z" id="Path" fill="#CD916A"></path>
        </g>
        <g id="pie_chart" transform="translate(171.349481, 110.448980)" fill-rule="nonzero">
            <g id="Group" transform="translate(46.782007, 0.000000)">
                <path d="M2.32650519,0.473668367 C15.3651903,0.473668367 27.1695502,3.05813265 35.8494118,7.18066837 L0.800692042,24.6586709 L0.800692042,0.502484694 C1.34588235,0.473668367 1.81820069,0.473668367 2.32650519,0.473668367 Z" id="Path" fill="#1B90FB"></path>
                <polygon id="Path" fill="#1277D7" points="35.8503114 7.17976786 35.8503114 19.3348546 0.801591696 36.8137577 0.801591696 24.6586709"></polygon>
            </g>
            <g id="Group" transform="translate(0.000000, 11.706633)">
                <path d="M47.5835986,0.887903061 L47.5835986,25.0729056 L14.0966782,41.7962806 C5.81536332,37.4702296 0.694532872,31.5763903 0.694532872,25.0729056 C0.694532872,18.5406046 5.81536332,12.6755816 14.1326644,8.32071429 C22.5957093,3.90731378 34.4351557,1.09051786 47.5835986,0.887903061 Z" id="Path" fill="#FFD255"></path>
                <polygon id="Path" fill="#FFBC00" points="47.5835986 25.0729056 47.5835986 37.2279923 14.0966782 53.9513673 14.0966782 41.7962806"></polygon>
                <path d="M1.62387543,29.8212959 C1.01480969,28.2868265 0.694532872,26.6983265 0.694532872,25.0729056 L0.694532872,25.0729056 L0.694532872,37.2279923 C0.694532872,43.731477 5.81536332,49.6253163 14.0966782,53.9513673 L14.0966782,41.7962806 C7.88546713,38.5517423 3.45287197,34.4256046 1.62387543,29.8212959 Z" id="Path" fill="#FFC31B"></path>
            </g>
            <g id="Group" transform="translate(50.380623, 20.711735)">
                <path d="M35.2781315,0.506987245 C44.4671972,4.94920408 50.2051903,11.1330077 50.2051903,18.0147066 C50.2051903,24.8666888 44.4662976,31.0802092 35.2781315,35.4927092 L0.265397924,18.0147066 L35.2781315,0.506987245 Z" id="Path" fill="#DAE7FF"></path>
                <path d="M35.2781315,35.4927092 L35.2781315,35.4927092 L35.2781315,47.6477959 C42.5113495,44.1736276 50.2051903,38.1969413 50.2051903,30.1697934 L50.2051903,18.0147066 C50.2051903,26.0679694 42.5014533,32.0239439 35.2781315,35.4927092 Z" id="Path" fill="#AEC1E8"></path>
                <polygon id="Path" fill="#C3D3F3" points="35.2781315 35.4927092 35.2781315 47.6477959 0.265397924 30.1697934 0.265397924 18.0147066"></polygon>
                <path d="M31.1343253,20.6901224 C31.150519,19.727477 31.2593772,18.9656454 31.462699,18.4082296 C31.6651211,17.8490128 32.0780623,17.2312628 32.7015225,16.550477 L34.2930104,14.9115485 C34.9731488,14.1434133 35.313218,13.3185459 35.313218,12.4378469 C35.313218,11.5886658 35.0901038,10.9240893 34.6447751,10.4423163 C34.1994464,9.96234439 33.5516955,9.72100765 32.7015225,9.72100765 C31.8756401,9.72100765 31.2116955,9.93983163 30.7096886,10.3774796 C30.2076817,10.8151276 29.9566782,11.4031607 29.9566782,12.1406786 L27.7093426,12.1406786 C27.7255363,10.8277347 28.1933564,9.76783418 29.1119031,8.96187755 C30.0313495,8.15502041 31.2269896,7.75249235 32.7006228,7.75249235 C34.2309343,7.75249235 35.4229758,8.16402551 36.2776471,8.98439031 C37.1323183,9.8047551 37.5587543,10.9339949 37.5587543,12.3640051 C37.5587543,13.7805077 36.9029066,15.1762985 35.5912111,16.5522781 L34.2669204,17.8634209 C33.6758478,18.5198929 33.3798616,19.4618265 33.3798616,20.6919235 L31.1343253,20.6919235 L31.1343253,20.6901224 Z M31.0371626,24.5524107 C31.0371626,24.1832015 31.1487197,23.875227 31.3709343,23.6266862 C31.5940484,23.3772449 31.9233218,23.252074 32.3605536,23.252074 C32.7977855,23.252074 33.1297578,23.3772449 33.3564706,23.6266862 C33.5831834,23.8761276 33.6965398,24.184102 33.6965398,24.5524107 C33.6965398,24.9216199 33.5831834,25.2250918 33.3564706,25.4664286 C33.1297578,25.7077653 32.7977855,25.8293342 32.3605536,25.8293342 C31.9233218,25.8293342 31.5931488,25.7077653 31.3709343,25.4664286 C31.1487197,25.2250918 31.0371626,24.9207194 31.0371626,24.5524107 Z" id="Shape" fill="#7266D5"></path>
            </g>
            <g id="Group" transform="translate(14.394464, 45.926020)">
                <path d="M34.1976471,0.355701531 L69.2463668,17.8337041 C60.5656055,21.9859566 48.7621453,24.5407041 35.7234602,24.5407041 C35.2511419,24.5407041 34.7428374,24.5407041 34.2345329,24.5118878 C21.0869896,24.3380893 9.28262976,21.5212934 0.711626298,17.0790765 L34.1976471,0.355701531 Z" id="Path" fill="#7CE3B0"></path>
                <path d="M35.7234602,24.5407041 C35.2511419,24.5407041 34.7428374,24.5407041 34.2345329,24.5118878 C21.0869896,24.3371888 9.28262976,21.5212934 0.711626298,17.0790765 L0.711626298,29.2341633 C9.28352941,33.6763801 21.0869896,36.4922755 34.2345329,36.6669745 C34.7428374,36.6957908 35.2511419,36.6957908 35.7234602,36.6957908 C45.502699,36.6957908 54.5874048,35.2585765 62.1804844,32.788477 C64.7112111,31.9654107 67.077301,31.0270791 69.2472664,29.9887908 L69.2472664,17.8337041 C60.5665052,21.9859566 48.7621453,24.5407041 35.7234602,24.5407041 Z" id="Path" fill="#2CCD7F"></path>
            </g>
        </g>
        <g id="man_hand_up" transform="translate(230.726644, 184.290816)" fill-rule="nonzero">
            <path d="M29.9575779,35.1117934 C28.9229758,37.3360536 29.4303806,38.5481403 29.1766782,39.4855714 C28.9220761,40.4230026 27.9513495,42.315875 27.9099654,43.2136837 C27.8685813,44.1114923 28.8213149,44.2339617 29.0273356,45.4073265 C29.2333564,46.5806913 28.6926644,48.1097577 29.4078893,49.3389541 C30.1222145,50.5681505 32.8967474,50.2844898 32.7330104,51.4713622 C32.5692734,52.6582347 30.8212457,57.0626301 30.8212457,57.0626301 L42.2279585,57.2454337 C42.2279585,57.2454337 41.7727336,50.8347015 42.3530104,48.1845 C42.9332872,45.5342985 44.2188927,35.7997832 41.8510035,34.6192143 C39.4831142,33.4386454 31.0560554,32.7497551 29.9575779,35.1117934 Z" id="Path" fill="#F1B282"></path>
            <path d="M36.2200692,30.0644337 C45.7096194,30.3607015 49.0392388,32.7542577 48.9303806,40.1762628 C48.8656055,44.5995689 46.4266436,50.7230383 43.2247751,50.703275 C40.9153633,50.6888189 36.3640138,50.4321735 35.5660208,49.1687577 C33.6731488,46.1718597 35.2934256,42.0340153 34.0249135,40.6058061 C32.2220069,38.5751556 28.124083,39.620648 28.6872664,32.6281862 C29.2522491,25.6339235 33.0622837,29.9653776 36.2200692,30.0644337 Z" id="Path" fill="#0B224E"></path>
            <polygon id="Path" fill="#F1B282" points="25.9118339 182.876513 25.9118339 187.094503 19.5476817 187.094503 19.5458824 181.081796"></polygon>
            <polygon id="Path" fill="#F1B282" points="47.8552941 183.053013 47.8552941 188.038237 54.3274048 188.038237 54.3274048 181.91927"></polygon>
            <path d="M51.6374394,106.206173 C51.6374394,106.206173 53.5896886,132.736105 53.9486505,140.394043 C54.3076125,148.051982 54.3274048,181.91927 54.3274048,181.91927 L47.5728028,181.978704 C47.5728028,181.978704 42.7560554,160.136829 43.0160554,147.608031 C41.4623529,142.582283 33.2575087,113.265273 33.1378547,107.282283 C33.0191003,101.300194 48.6487889,103.214679 51.6374394,106.206173 Z" id="Path" fill="#0B224E"></path>
            <path d="M21.5278201,106.206173 C21.5278201,106.206173 18.7280969,133.095408 18.3700346,140.753347 C18.0110727,148.411286 19.3758478,181.920171 19.3758478,181.920171 L26.3634602,182.39474 C26.3634602,182.39474 29.8757093,164.207135 30.1770934,147.43063 C31.7307958,142.404883 41.3211073,112.872651 41.4407612,106.890561 C41.5613149,100.906671 24.5164706,103.214679 21.5278201,106.206173 Z" id="Path" fill="#102B5E"></path>
            <path d="M53.3953633,74.0183367 C53.3953633,74.0183367 58.7006228,80.6091709 57.6246367,85.8150204 C56.5486505,91.0199694 49.899308,101.570347 48.2853287,103.903569 C46.6713495,106.236791 50.9474048,108.750115 50.9474048,108.750115 C50.9474048,108.750115 64.5681661,91.0406811 66.7201384,85.6565306 C68.8721107,80.2723801 59.2233218,66.2118138 59.2233218,66.2118138 L53.3953633,74.0183367 Z" id="Path" fill="#F1B282"></path>
            <path d="M19.1248443,51.7910434 C19.1248443,51.7910434 13.1529412,51.0481224 9.88809689,40.8894668 C6.6232526,30.7308112 5.67321799,17.0907832 6.86256055,14.0803776 C8.74553633,9.31217602 6.71951557,4.6241199 6.19051903,2.66641071 C5.78927336,1.1823699 4.59543253,-0.859086735 4.26256055,0.740219388 C4.06283737,1.70016327 4.21577855,4.19007398 4.59093426,6.02441327 C4.92470588,7.65703827 -0.190726644,7.8191301 0.526297578,10.3324541 C1.2433218,12.8448776 1.96124567,12.6836862 2.08,14.4684974 C2.19875433,16.2533087 1.2433218,36.5949337 2.55861592,41.3820459 C3.87391003,46.1682577 8.89487889,58.6124082 12.6005536,60.8861964 C16.307128,63.1590842 19.1248443,51.7910434 19.1248443,51.7910434 Z" id="Path" fill="#F1B282"></path>
            <path d="M34.4774394,55.6209133 C37.2564706,55.5920969 49.0023529,54.7231046 54.8294118,60.1081556 C60.6564706,65.4932066 62.7193772,69.6211454 63.0783391,70.6981556 C63.437301,71.7751658 55.9053979,77.6086709 54.3813841,76.4416097 C52.8573702,75.2745485 51.7813841,73.1214286 49.9883737,73.1214286 C48.1953633,73.1214286 49.0914187,82.9036709 49.8093426,87.9294184 C50.5272664,92.9551658 54.8303114,107.134599 51.7813841,108.480862 C48.7333564,109.827125 40.843391,108.032408 36.2704498,109.198569 C31.6975087,110.36473 24.0765398,111.262538 21.5665052,108.390811 C19.0564706,105.519084 23.3595156,94.6598316 23.449481,87.6601658 C23.5394464,80.6605 23.2704498,69.7111964 19.0564706,66.9295204 C14.8424913,64.1478444 9.73245675,63.2500357 9.55252595,60.6475612 C9.37349481,58.0450867 16.9044983,49.7883087 18.6975087,50.6861173 C20.490519,51.583926 23.7445675,55.3525612 27.1245675,55.4426122 C30.5045675,55.5308622 32.5044983,55.6407245 34.4774394,55.6209133 Z" id="Path" fill="#FFCB01"></path>
            <path d="M17.8104498,182.232648 C18.3529412,183.916602 20.4176471,183.652753 21.7257439,183.926508 C23.0338408,184.200263 27.5932872,184.836023 27.7579239,183.589717 C27.9225606,182.344311 27.2811073,181.433895 27.3656747,180.480255 C27.4502422,179.526615 28.4965398,178.313628 27.4385467,177.598622 C26.3805536,176.882717 24.6199308,177.551796 23.3406228,177.586916 C22.4049827,177.61213 18.9548097,176.141597 18.5355709,176.732332 C18.1163322,177.323066 18.6885121,178.455908 18.5436678,179.189824 C18.3286505,180.278541 17.3894118,180.926008 17.8104498,182.232648 Z" id="Path" fill="#355AA2"></path>
            <path d="M55.5284429,183.127755 C54.8986851,184.780191 52.850173,184.409181 51.5303806,184.614497 C50.2096886,184.819814 45.6232526,185.215138 45.523391,183.962528 C45.4235294,182.709918 46.1126644,181.834622 46.0775779,180.878281 C46.0424913,179.921939 45.0609689,178.655821 46.1558478,177.996648 C47.249827,177.337474 48.9726644,178.097505 50.2483737,178.199263 C51.1813149,178.274005 54.7034602,176.985375 55.0912111,177.597722 C55.4789619,178.210069 54.8483045,179.311393 54.9544637,180.051612 C55.1128028,181.149334 56.016955,181.845429 55.5284429,183.127755 Z" id="Path" fill="#355AA2"></path>
            <path d="M26.7979931,186.283143 C25.9118339,185.385334 24.3734256,186.821648 22.8062284,186.821648 C21.2390311,186.821648 20.3672664,185.745538 19.5476817,185.685204 C18.7289965,185.62487 18.3097578,187.539355 16.5770242,188.417352 C15.5478201,188.938747 13.1106574,189.196293 13.1106574,192.184186 C13.1106574,192.923505 26.3652595,192.736199 26.7988927,192.494862 C27.6238754,192.032901 27.6832526,187.180051 26.7979931,186.283143 Z" id="Path" fill="#102B5E"></path>
            <path d="M55.1298962,186.283143 C54.243737,185.385334 52.7053287,186.821648 51.1381315,186.821648 C49.5709343,186.821648 48.6991696,185.745538 47.8795848,185.685204 C47.06,185.62487 46.6416609,187.539355 44.9089273,188.417352 C43.8797232,188.938747 41.4425606,189.196293 41.4425606,192.184186 C41.4425606,192.923505 54.6971626,192.736199 55.1307958,192.494862 C55.9557785,192.032901 56.0160554,187.180051 55.1298962,186.283143 Z" id="Path" fill="#102B5E"></path>
        </g>
    </g>
</svg>